<svg height="512pt" viewBox="-115 0 512 512" width="512pt" xmlns="http://www.w3.org/2000/svg"><path d="m30.601562 481.191406c0 16.988282 13.820313 30.808594 30.808594 30.808594h159.617188c16.988281 0 30.808594-13.820312 30.808594-30.808594v-34.617187h-221.234376zm0 0"/><path d="m30.558594 416.574219h221.324218l4.601563-58.269531h-230.527344zm0 0"/><path d="m141.21875 206.664062c6.089844 0 11.042969-4.953124 11.042969-11.042968 0-6.085938-4.953125-11.042969-11.042969-11.042969s-11.042969 4.953125-11.042969 11.042969 4.953125 11.042968 11.042969 11.042968zm0 0"/><path d="m23.585938 328.304688h235.265624l20.796876-263.363282h-276.859376zm99.023437-70.449219-6.351563 11c-2.777343 4.808593-7.820312 7.5-13.003906 7.5-2.542968 0-5.121094-.648438-7.484375-2.011719-7.175781-4.140625-9.632812-13.316406-5.492187-20.488281l6.351562-11c4.140625-7.175781 13.316406-9.636719 20.488282-5.492188 7.175781 4.144531 9.632812 13.316407 5.492187 20.492188zm64.0625 16.488281c-2.363281 1.363281-4.945313 2.011719-7.488281 2.011719-5.183594 0-10.226563-2.6875-13.003906-7.5l-6.351563-11c-4.144531-7.175781-1.683594-16.347657 5.488281-20.492188 7.175782-4.140625 16.351563-1.683593 20.492188 5.492188l6.351562 10.996093c4.140625 7.175782 1.683594 16.347657-5.488281 20.492188zm30.445313-93.722656c8.285156 0 15 6.71875 15 15 0 8.285156-6.714844 15-15 15h-12.699219c-8.28125 0-15-6.714844-15-15 0-8.28125 6.71875-15 15-15zm-57.289063-47.230469 6.351563-11c4.140624-7.175781 13.3125-9.632813 20.492187-5.492187 7.171875 4.144531 9.628906 13.316406 5.488281 20.492187l-6.351562 11c-2.777344 4.8125-7.820313 7.5-13.003906 7.5-2.546876 0-5.125-.648437-7.488282-2.011719-7.171875-4.140625-9.628906-13.316406-5.488281-20.488281zm22.433594 62.230469c0 22.632812-18.410157 41.042968-41.042969 41.042968-22.628906 0-41.042969-18.410156-41.042969-41.042968 0-22.628906 18.414063-41.042969 41.042969-41.042969 22.632812 0 41.042969 18.414063 41.042969 41.042969zm-86.492188-78.722656c7.175781-4.140626 16.347657-1.683594 20.488281 5.492187l6.351563 11c4.140625 7.171875 1.683594 16.347656-5.492187 20.488281-2.359376 1.363282-4.9375 2.011719-7.484376 2.011719-5.183593 0-10.226562-2.691406-13.003906-7.5l-6.351562-11c-4.140625-7.175781-1.683594-16.347656 5.492187-20.492187zm-30.449219 63.722656h12.699219c8.285157 0 15 6.71875 15 15 0 8.285156-6.714843 15-15 15h-12.699219c-8.285156 0-15-6.714844-15-15 0-8.28125 6.714844-15 15-15zm0 0"/><path d="m282.296875 31.386719c.78125-8.015625-1.730469-15.691407-7.082031-21.640625-5.578125-6.191406-13.765625-9.746094-22.453125-9.746094h-223.085938c-8.691406 0-16.878906 3.554688-22.457031 9.753906-5.351562 5.945313-7.859375 13.617188-7.078125 21.628906l.28125 3.558594h281.59375zm0 0"/></svg>